<svg width="38" height="65" viewBox="0 0 38 65" fill="none" xmlns="http://www.w3.org/2000/svg">
<path d="M33.8197 1.14886C34.8421 0.220878 36.4232 0.297381 37.3511 1.31974C38.2791 2.34209 38.2026 3.92315 37.1803 4.85114L33.8197 1.14886ZM3 32.5L1.3043 34.337C0.788918 33.8613 0.497086 33.1909 0.500023 32.4895C0.502956 31.7882 0.800392 31.1203 1.31974 30.6489L3 32.5ZM37.1957 60.663C38.2103 61.5995 38.2735 63.1811 37.337 64.1957C36.4005 65.2103 34.8189 65.2735 33.8043 64.337L37.1957 60.663ZM37.1803 4.85114L4.68026 34.3511L1.31974 30.6489L33.8197 1.14886L37.1803 4.85114ZM4.6957 30.663L37.1957 60.663L33.8043 64.337L1.3043 34.337L4.6957 30.663Z" fill="#8C0000"/>
</svg>
