<svg width="38" height="65" viewBox="0 0 38 65" fill="none" xmlns="http://www.w3.org/2000/svg">
<path d="M4.68026 1.14886C3.65791 0.220878 2.07685 0.297381 1.14886 1.31974C0.220878 2.34209 0.297381 3.92315 1.31974 4.85114L4.68026 1.14886ZM35.5 32.5L37.1957 34.337C37.7111 33.8613 38.0029 33.1909 38 32.4895C37.997 31.7882 37.6996 31.1203 37.1803 30.6489L35.5 32.5ZM1.3043 60.663C0.289748 61.5995 0.226482 63.1811 1.16299 64.1957C2.0995 65.2103 3.68115 65.2735 4.6957 64.337L1.3043 60.663ZM1.31974 4.85114L33.8197 34.3511L37.1803 30.6489L4.68026 1.14886L1.31974 4.85114ZM33.8043 30.663L1.3043 60.663L4.6957 64.337L37.1957 34.337L33.8043 30.663Z" fill="#8C0000"/>
</svg>
